<?xml version="1.0" standalone="no"?>
<!DOCTYPE svg PUBLIC "-//W3C//DTD SVG 20010904//EN"
 "http://www.w3.org/TR/2001/REC-SVG-20010904/DTD/svg10.dtd">
<svg version="1.0" xmlns="http://www.w3.org/2000/svg"
 width="800.000000pt" height="800.000000pt" viewBox="0 0 800.000000 800.000000"
 preserveAspectRatio="xMidYMid meet">
<metadata>
Created by potrace 1.11, written by Peter Selinger 2001-2013
</metadata>
<g transform="translate(0.000000,800.000000) scale(0.100000,-0.100000)"
fill="#000000" stroke="none">
<path d="M5618 7694 c-2 -1 -61 -5 -133 -8 -71 -3 -143 -7 -160 -10 -16 -2
-61 -7 -98 -11 -37 -3 -76 -8 -86 -10 -10 -2 -40 -6 -67 -9 -27 -4 -90 -16
-139 -26 -50 -11 -102 -22 -117 -25 -37 -5 -223 -61 -289 -86 -446 -167 -720
-433 -813 -789 -30 -113 -42 -207 -40 -315 1 -78 12 -217 20 -259 2 -12 7 -37
11 -56 4 -19 7 -39 8 -45 1 -29 303 -198 470 -262 123 -48 249 -84 345 -99 25
-3 56 -9 70 -11 67 -12 343 -11 438 2 621 84 1236 510 1813 1255 129 167 379
543 379 570 0 4 -8 10 -17 13 -10 3 -44 15 -76 26 -139 48 -549 116 -832 136
-44 3 -105 8 -135 11 -56 6 -548 13 -552 8z"/>
<path d="M3340 6780 c-121 -15 -218 -58 -287 -129 -40 -42 -42 -57 -39 -221 6
-242 81 -442 247 -656 47 -62 205 -251 219 -264 3 -3 27 -32 53 -65 26 -33 58
-74 72 -91 43 -54 191 -82 256 -48 17 8 29 18 27 22 -2 4 -28 57 -59 117 -82
161 -166 396 -184 516 -4 24 -8 46 -10 49 -10 17 -20 166 -20 305 1 175 6 227
34 355 10 47 17 88 15 91 -3 6 -103 16 -224 23 -25 1 -70 -1 -100 -4z"/>
<path d="M2160 5574 c-36 -7 -77 -16 -91 -18 -145 -30 -385 -146 -558 -271
-361 -262 -572 -678 -618 -1220 -19 -225 -1 -510 48 -765 13 -67 119 -496 149
-600 12 -41 23 -83 25 -93 11 -49 122 -404 145 -462 130 -330 193 -469 291
-640 184 -321 430 -594 703 -777 33 -23 64 -46 67 -51 3 -5 9 -8 13 -7 15 3
85 -44 79 -53 -3 -6 -1 -7 5 -3 11 7 70 -20 83 -37 3 -5 10 -8 15 -7 26 4 43
-9 39 -29 -2 -12 0 -19 6 -16 5 4 7 11 4 16 -7 10 8 12 19 2 3 -4 12 -8 19
-10 35 -8 87 -29 87 -35 0 -5 11 -8 24 -8 14 0 27 -4 31 -9 3 -6 14 -8 25 -6
11 2 20 1 20 -4 0 -4 16 -5 36 -3 29 4 35 2 28 -9 -6 -11 -3 -10 11 1 11 9 16
10 11 3 -4 -7 -2 -13 3 -13 6 0 11 4 11 9 0 5 11 8 24 7 13 0 22 -4 19 -8 -2
-5 1 -8 6 -8 6 0 11 5 11 11 0 8 6 7 17 -2 14 -12 16 -12 9 0 -7 11 0 13 33 9
22 -2 42 -1 43 3 2 4 23 9 48 12 25 3 52 8 60 11 8 3 29 7 45 10 17 2 39 8 49
12 15 6 18 4 14 -7 -4 -10 1 -15 13 -15 13 0 15 4 8 13 -8 9 0 15 31 23 23 6
48 9 56 6 8 -3 14 -1 14 5 0 6 7 9 15 5 8 -3 15 -2 15 2 0 9 27 14 92 16 25 0
44 4 41 9 -2 4 11 8 29 9 68 4 93 6 98 8 18 8 56 6 62 -4 6 -8 8 -8 8 0 0 14
204 11 222 -3 7 -6 26 -8 41 -6 17 2 26 0 23 -6 -4 -5 -2 -12 4 -16 5 -3 10 0
10 8 0 10 7 13 20 10 11 -3 18 -9 15 -13 -3 -5 3 -6 12 -4 25 7 138 -29 138
-43 0 -6 3 -15 7 -19 4 -3 6 3 3 15 -4 21 9 29 19 12 5 -8 35 -17 91 -27 41
-8 75 -27 68 -38 -3 -6 0 -6 8 2 15 14 33 17 25 4 -3 -5 5 -8 17 -7 12 1 45
-4 72 -11 28 -7 68 -15 90 -16 22 -2 45 -6 50 -10 25 -13 191 4 257 28 21 7
38 10 38 6 0 -4 4 -2 8 3 7 10 85 39 107 40 6 0 16 6 23 13 8 7 18 10 23 7 5
-4 9 -1 9 5 0 7 7 9 16 6 9 -4 13 -2 8 5 -4 7 1 9 12 7 11 -2 27 6 36 17 11
12 17 15 18 7 0 -8 8 -5 22 8 12 11 28 18 36 15 7 -2 10 0 7 5 -3 6 1 10 9 10
9 0 16 5 16 11 0 6 7 9 15 5 8 -3 15 -1 15 4 0 14 59 42 72 34 6 -4 8 -3 5 2
-3 5 22 28 56 49 178 116 369 286 528 470 50 59 196 255 226 305 245 404 371
695 526 1220 24 80 55 197 62 230 2 8 8 33 14 55 10 38 107 468 115 510 2 11
13 67 24 125 12 58 24 128 28 155 3 28 8 59 11 70 13 56 11 355 -3 430 -58
321 -248 588 -642 902 -249 200 -542 355 -732 388 -106 19 -168 23 -270 20
-181 -6 -262 -25 -610 -139 -247 -82 -409 -129 -479 -141 -19 -3 -37 -7 -40
-9 -3 -2 -26 -7 -51 -10 -25 -3 -54 -8 -65 -10 -45 -9 -176 -19 -260 -20 -217
-4 -329 23 -845 199 -149 51 -349 106 -440 121 -77 12 -365 11 -430 -2z"/>
<path d="M2256 642 c-3 -5 1 -9 9 -9 8 0 12 4 9 9 -3 4 -7 8 -9 8 -2 0 -6 -4
-9 -8z"/>
<path d="M5566 642 c-3 -5 1 -9 9 -9 8 0 12 4 9 9 -3 4 -7 8 -9 8 -2 0 -6 -4
-9 -8z"/>
<path d="M5373 615 c0 -8 4 -12 9 -9 5 3 6 10 3 15 -9 13 -12 11 -12 -6z"/>
<path d="M5410 620 c0 -5 5 -10 11 -10 5 0 7 5 4 10 -3 6 -8 10 -11 10 -2 0
-4 -4 -4 -10z"/>
<path d="M5474 622 c4 -3 14 -7 22 -8 9 -1 13 0 10 4 -4 3 -14 7 -22 8 -9 1
-13 0 -10 -4z"/>
<path d="M2233 575 c0 -8 4 -12 9 -9 5 3 6 10 3 15 -9 13 -12 11 -12 -6z"/>
<path d="M2336 582 c-3 -4 4 -9 15 -9 23 -2 25 3 4 10 -8 4 -16 3 -19 -1z"/>
<path d="M3690 580 c0 -5 5 -10 11 -10 5 0 7 5 4 10 -3 6 -8 10 -11 10 -2 0
-4 -4 -4 -10z"/>
<path d="M5535 579 c-3 -4 2 -6 10 -5 21 3 28 13 10 13 -9 0 -18 -4 -20 -8z"/>
<path d="M3633 565 c0 -8 4 -15 9 -15 4 0 8 4 8 9 0 6 -4 12 -8 15 -5 3 -9 -1
-9 -9z"/>
<path d="M3770 566 c0 -8 4 -17 9 -20 5 -4 7 3 4 14 -6 23 -13 26 -13 6z"/>
<path d="M3795 571 c-3 -5 -2 -12 3 -15 5 -3 9 1 9 9 0 17 -3 19 -12 6z"/>
<path d="M3938 563 c-4 -17 -2 -20 10 -16 9 4 13 2 9 -4 -3 -5 0 -10 8 -10 10
0 12 4 5 12 -5 7 -6 16 -2 20 4 5 2 5 -5 2 -6 -4 -13 -2 -15 5 -3 7 -7 3 -10
-9z"/>
<path d="M3737 556 c-4 -10 -1 -13 8 -9 8 3 12 9 9 14 -7 12 -11 11 -17 -5z"/>
<path d="M3841 556 c-9 -10 -9 -16 -1 -21 6 -4 14 -4 17 -1 4 3 1 6 -7 6 -10
0 -10 3 0 15 7 8 10 15 7 15 -2 0 -10 -6 -16 -14z"/>
<path d="M5753 555 c0 -8 4 -12 9 -9 5 3 6 10 3 15 -9 13 -12 11 -12 -6z"/>
<path d="M3596 538 c3 -5 10 -6 15 -3 13 9 11 12 -6 12 -8 0 -12 -4 -9 -9z"/>
<path d="M4117 539 c7 -7 15 -10 18 -7 3 3 -2 9 -12 12 -14 6 -15 5 -6 -5z"/>
<path d="M5353 535 c0 -8 4 -12 9 -9 5 3 6 10 3 15 -9 13 -12 11 -12 -6z"/>
<path d="M5495 540 c3 -5 8 -10 11 -10 2 0 4 5 4 10 0 6 -5 10 -11 10 -5 0 -7
-4 -4 -10z"/>
<path d="M5526 542 c-3 -5 1 -9 9 -9 8 0 12 4 9 9 -3 4 -7 8 -9 8 -2 0 -6 -4
-9 -8z"/>
<path d="M3491 531 c-8 -5 -20 -7 -28 -4 -7 3 -13 1 -13 -5 0 -6 8 -9 18 -7 9
1 22 -1 27 -6 7 -5 11 0 11 12 0 10 0 19 -1 19 0 0 -6 -4 -14 -9z"/>
<path d="M3687 526 c-15 -12 -16 -15 -2 -26 13 -11 14 -10 9 5 -5 11 -4 16 3
12 5 -3 10 0 10 8 0 8 -1 15 -1 15 -1 0 -9 -7 -19 -14z"/>
<path d="M3795 531 c-3 -5 -2 -12 3 -15 5 -3 9 1 9 9 0 17 -3 19 -12 6z"/>
<path d="M4060 533 c0 -6 -15 -9 -36 -7 -20 2 -34 1 -31 -3 10 -10 67 -11 73
-1 3 5 3 12 0 15 -3 4 -6 2 -6 -4z"/>
<path d="M4094 521 c0 -11 5 -17 13 -14 10 4 11 9 2 19 -15 18 -15 18 -15 -5z"/>
<path d="M2226 518 c3 -5 10 -6 15 -3 13 9 11 12 -6 12 -8 0 -12 -4 -9 -9z"/>
<path d="M2339 528 c-5 -18 -6 -38 -1 -34 7 8 12 36 6 36 -2 0 -4 -1 -5 -2z"/>
<path d="M2520 526 c0 -2 8 -10 18 -17 15 -13 16 -12 3 4 -13 16 -21 21 -21
13z"/>
<path d="M3340 526 c0 -2 7 -7 16 -10 8 -3 12 -2 9 4 -6 10 -25 14 -25 6z"/>
<path d="M3406 517 c3 -10 9 -15 12 -12 3 3 0 11 -7 18 -10 9 -11 8 -5 -6z"/>
<path d="M3533 517 c-3 -4 -2 -11 1 -14 3 -4 6 -2 6 4 0 10 61 9 78 -1 5 -3 9
0 9 7 0 14 -85 18 -94 4z"/>
<path d="M3828 518 c10 -13 10 -17 0 -21 -9 -4 -9 -6 -1 -6 20 -2 24 16 5 30
-15 13 -16 12 -4 -3z"/>
<path d="M3910 525 c0 -5 5 -17 10 -25 5 -8 10 -10 10 -5 0 6 -5 17 -10 25 -5
8 -10 11 -10 5z"/>
<path d="M5194 485 c0 -19 3 -32 5 -29 8 7 9 54 2 59 -4 2 -7 -12 -7 -30z"/>
<path d="M3867 493 c3 -7 6 -13 8 -13 2 0 5 6 8 13 3 8 -1 14 -8 14 -7 0 -11
-6 -8 -14z"/>
<path d="M3988 503 c6 -2 9 -10 6 -15 -4 -7 -2 -8 5 -4 13 9 5 26 -12 25 -9 0
-8 -2 1 -6z"/>
<path d="M5260 506 c0 -2 8 -10 18 -17 15 -13 16 -12 3 4 -13 16 -21 21 -21
13z"/>
<path d="M5455 500 c3 -5 8 -10 11 -10 2 0 4 5 4 10 0 6 -5 10 -11 10 -5 0 -7
-4 -4 -10z"/>
<path d="M5490 499 c0 -5 5 -7 10 -4 6 3 10 8 10 11 0 2 -4 4 -10 4 -5 0 -10
-5 -10 -11z"/>
<path d="M3380 489 c0 -5 -4 -7 -10 -4 -14 9 -12 -1 3 -13 10 -8 13 -6 14 9 1
10 0 19 -3 19 -2 0 -4 -5 -4 -11z"/>
<path d="M3651 493 c-1 -17 16 -25 25 -12 4 7 3 9 -4 5 -5 -3 -13 0 -15 6 -4
9 -6 10 -6 1z"/>
<path d="M3895 491 c-3 -5 -2 -12 3 -15 5 -3 9 1 9 9 0 17 -3 19 -12 6z"/>
<path d="M3413 474 c0 -7 4 -11 9 -8 5 3 16 0 25 -8 15 -12 15 -11 3 8 -14 23
-37 28 -37 8z"/>
<path d="M3514 444 c0 -23 3 -41 7 -39 3 3 5 17 4 32 -1 15 2 33 6 39 5 6 4
11 -4 11 -8 0 -13 -15 -13 -43z"/>
<path d="M4068 472 c-3 -11 0 -19 7 -19 7 0 10 8 7 19 -2 10 -6 18 -7 18 -1 0
-5 -8 -7 -18z"/>
<path d="M4090 481 c0 -6 4 -13 10 -16 6 -3 7 1 4 9 -7 18 -14 21 -14 7z"/>
<path d="M4310 483 c0 -6 8 -17 18 -24 16 -13 16 -13 2 6 -8 11 -16 22 -17 24
-2 2 -3 0 -3 -6z"/>
<path d="M5556 478 c3 -5 10 -6 15 -3 13 9 11 12 -6 12 -8 0 -12 -4 -9 -9z"/>
<path d="M4353 465 c0 -8 10 -23 21 -32 21 -18 21 -18 4 2 -9 11 -17 24 -16
28 0 5 -2 11 -4 13 -3 2 -5 -3 -5 -11z"/>
<path d="M2379 468 c-5 -18 -6 -38 -1 -34 7 8 12 36 6 36 -2 0 -4 -1 -5 -2z"/>
<path d="M3121 456 c-6 -7 -24 -12 -40 -11 -18 1 -28 -3 -28 -11 0 -8 5 -10
11 -5 6 5 19 7 28 6 9 -2 24 6 34 16 9 10 15 19 12 19 -3 0 -11 -6 -17 -14z"/>
<path d="M3190 456 c7 -7 13 -7 20 0 6 6 3 10 -10 10 -13 0 -16 -4 -10 -10z"/>
<path d="M3235 462 c3 -3 -1 -12 -7 -21 -8 -10 -4 -9 10 3 26 23 26 23 7 23
-8 0 -13 -3 -10 -5z"/>
<path d="M3300 464 c0 -1 8 -8 17 -15 9 -8 14 -9 10 -2 -4 6 -1 13 5 16 7 3 3
4 -9 4 -13 -1 -23 -2 -23 -3z"/>
<path d="M3353 463 c4 -3 -1 -16 -10 -27 -18 -21 -18 -21 4 -2 20 16 23 36 6
36 -4 0 -3 -3 0 -7z"/>
<path d="M3480 460 c-9 -6 -10 -10 -3 -10 6 0 15 5 18 10 8 12 4 12 -15 0z"/>
<path d="M3747 453 c3 -7 6 -13 8 -13 2 0 5 6 8 13 3 8 -1 14 -8 14 -7 0 -11
-6 -8 -14z"/>
<path d="M3780 464 c0 -1 6 -7 14 -13 10 -9 15 -8 19 2 3 8 -3 13 -14 13 -11
0 -19 -1 -19 -2z"/>
<path d="M3870 462 c0 -12 22 -32 35 -32 5 0 2 5 -8 11 -9 6 -15 14 -12 20 4
5 1 9 -4 9 -6 0 -11 -4 -11 -8z"/>
<path d="M4180 464 c0 -1 8 -8 17 -15 9 -8 14 -9 10 -2 -4 6 -1 13 5 16 7 3 3
4 -9 4 -13 -1 -23 -2 -23 -3z"/>
<path d="M4235 462 c3 -3 -3 -15 -12 -26 -17 -20 -17 -20 0 -7 14 11 20 11 35
0 15 -13 16 -12 4 3 -8 9 -11 21 -8 26 3 5 -1 9 -9 9 -8 0 -13 -3 -10 -5z"/>
<path d="M4273 455 c0 -8 4 -12 9 -9 5 3 6 10 3 15 -9 13 -12 11 -12 -6z"/>
<path d="M4387 459 c7 -7 15 -10 18 -7 3 3 -2 9 -12 12 -14 6 -15 5 -6 -5z"/>
<path d="M5031 447 c-13 -21 -12 -21 5 -5 10 10 16 20 13 22 -3 3 -11 -5 -18
-17z"/>
<path d="M5113 455 c0 -8 4 -12 9 -9 4 3 8 9 8 15 0 5 -4 9 -8 9 -5 0 -9 -7
-9 -15z"/>
<path d="M5495 461 c-3 -5 -2 -12 3 -15 5 -3 9 1 9 9 0 17 -3 19 -12 6z"/>
<path d="M5536 462 c-2 -4 -1 -14 4 -22 7 -11 9 -9 7 8 -1 24 -3 26 -11 14z"/>
<path d="M3609 443 c-13 -16 -12 -17 4 -4 16 13 21 21 13 21 -2 0 -10 -8 -17
-17z"/>
<path d="M3948 453 c7 -3 16 -2 19 1 4 3 -2 6 -13 5 -11 0 -14 -3 -6 -6z"/>
<path d="M4130 456 c0 -2 8 -10 18 -17 15 -13 16 -12 3 4 -13 16 -21 21 -21
13z"/>
<path d="M2730 439 c0 -5 5 -7 10 -4 6 3 10 8 10 11 0 2 -4 4 -10 4 -5 0 -10
-5 -10 -11z"/>
<path d="M2913 435 c0 -8 4 -12 9 -9 5 3 6 10 3 15 -9 13 -12 11 -12 -6z"/>
<path d="M3155 440 c3 -5 8 -10 11 -10 2 0 4 5 4 10 0 6 -5 10 -11 10 -5 0 -7
-4 -4 -10z"/>
<path d="M3280 446 c0 -2 8 -10 18 -17 15 -13 16 -12 3 4 -13 16 -21 21 -21
13z"/>
<path d="M3433 443 c4 -3 1 -13 -6 -22 -11 -14 -10 -14 5 -2 16 12 16 31 1 31
-4 0 -3 -3 0 -7z"/>
<path d="M3566 438 c3 -4 9 -8 15 -8 5 0 9 4 9 8 0 5 -7 9 -15 9 -8 0 -12 -4
-9 -9z"/>
<path d="M3633 432 c-8 -14 -8 -19 1 -19 7 0 13 9 13 19 1 10 1 18 0 18 -1 0
-7 -8 -14 -18z"/>
<path d="M3994 419 c-2 -35 5 -33 12 5 2 14 1 26 -3 26 -5 0 -9 -14 -9 -31z"/>
<path d="M4113 433 c0 -11 7 -20 14 -20 10 0 10 4 1 16 -7 9 -13 18 -15 20 -1
2 -1 -5 0 -16z"/>
<path d="M4996 433 c-6 -14 -5 -15 5 -6 7 7 10 15 7 18 -3 3 -9 -2 -12 -12z"/>
<path d="M5260 446 c0 -2 8 -10 18 -17 15 -13 16 -12 3 4 -13 16 -21 21 -21
13z"/>
<path d="M5379 448 c-5 -18 -6 -38 -1 -34 7 8 12 36 6 36 -2 0 -4 -1 -5 -2z"/>
<path d="M2873 427 c0 -8 6 -14 14 -14 9 0 10 4 2 14 -6 7 -12 13 -14 13 -1 0
-2 -6 -2 -13z"/>
<path d="M4029 423 c-13 -16 -12 -17 4 -4 16 13 21 21 13 21 -2 0 -10 -8 -17
-17z"/>
<path d="M4474 415 c0 -13 3 -22 7 -19 8 4 6 30 -2 38 -3 3 -5 -5 -5 -19z"/>
<path d="M2530 419 c0 -5 5 -7 10 -4 6 3 10 8 10 11 0 2 -4 4 -10 4 -5 0 -10
-5 -10 -11z"/>
<path d="M4314 412 c11 -12 21 -20 24 -17 3 3 10 0 17 -5 8 -7 12 -5 12 4 0 8
-7 13 -16 11 -9 -1 -25 5 -36 14 -20 16 -20 16 -1 -7z"/>
<path d="M4511 406 c-17 -19 -20 -26 -9 -32 7 -4 10 -3 5 1 -4 5 3 19 15 32
12 13 19 23 16 23 -2 0 -15 -11 -27 -24z"/>
<path d="M5170 419 c0 -5 5 -7 10 -4 6 3 10 8 10 11 0 2 -4 4 -10 4 -5 0 -10
-5 -10 -11z"/>
<path d="M5330 420 c0 -5 5 -10 11 -10 5 0 7 5 4 10 -3 6 -8 10 -11 10 -2 0
-4 -4 -4 -10z"/>
<path d="M2673 405 c0 -8 4 -12 9 -9 5 3 6 10 3 15 -9 13 -12 11 -12 -6z"/>
<path d="M3736 407 c3 -10 9 -15 12 -12 3 3 0 11 -7 18 -10 9 -11 8 -5 -6z"/>
<path d="M4154 406 c1 -8 5 -18 8 -22 4 -3 5 1 4 10 -1 8 -5 18 -8 22 -4 3 -5
-1 -4 -10z"/>
<path d="M4916 407 c3 -10 9 -15 12 -12 3 3 0 11 -7 18 -10 9 -11 8 -5 -6z"/>
<path d="M2915 400 c-3 -5 -1 -10 4 -10 6 0 11 5 11 10 0 6 -2 10 -4 10 -3 0
-8 -4 -11 -10z"/>
<path d="M3886 398 c3 -5 10 -6 15 -3 13 9 11 12 -6 12 -8 0 -12 -4 -9 -9z"/>
<path d="M4233 393 c0 -9 4 -10 14 -2 7 6 13 12 13 14 0 1 -6 2 -13 2 -8 0
-14 -6 -14 -14z"/>
<path d="M4559 408 c-5 -18 -6 -38 -1 -34 7 8 12 36 6 36 -2 0 -4 -1 -5 -2z"/>
<path d="M4873 395 c0 -8 4 -12 9 -9 5 3 6 10 3 15 -9 13 -12 11 -12 -6z"/>
<path d="M2590 380 c0 -5 5 -10 11 -10 5 0 7 5 4 10 -3 6 -8 10 -11 10 -2 0
-4 -4 -4 -10z"/>
<path d="M2975 380 c3 -5 8 -10 11 -10 2 0 4 5 4 10 0 6 -5 10 -11 10 -5 0 -7
-4 -4 -10z"/>
<path d="M3010 379 c0 -5 5 -7 10 -4 6 3 10 8 10 11 0 2 -4 4 -10 4 -5 0 -10
-5 -10 -11z"/>
<path d="M3095 380 c3 -5 8 -10 11 -10 2 0 4 5 4 10 0 6 -5 10 -11 10 -5 0 -7
-4 -4 -10z"/>
<path d="M3426 378 c3 -5 10 -6 15 -3 13 9 11 12 -6 12 -8 0 -12 -4 -9 -9z"/>
<path d="M3790 379 c0 -5 5 -7 10 -4 6 3 10 8 10 11 0 2 -4 4 -10 4 -5 0 -10
-5 -10 -11z"/>
<path d="M3825 380 c-3 -6 1 -7 9 -4 18 7 21 14 7 14 -6 0 -13 -4 -16 -10z"/>
<path d="M3945 380 c-3 -6 1 -7 9 -4 18 7 21 14 7 14 -6 0 -13 -4 -16 -10z"/>
<path d="M5130 380 c0 -5 5 -10 11 -10 5 0 7 5 4 10 -3 6 -8 10 -11 10 -2 0
-4 -4 -4 -10z"/>
<path d="M5310 381 c0 -6 4 -13 10 -16 6 -3 7 1 4 9 -7 18 -14 21 -14 7z"/>
<path d="M3989 363 c-13 -16 -12 -17 4 -4 16 13 21 21 13 21 -2 0 -10 -8 -17
-17z"/>
<path d="M4226 362 c-2 -4 4 -8 14 -8 10 0 16 4 14 8 -3 4 -9 8 -14 8 -5 0
-11 -4 -14 -8z"/>
<path d="M4336 358 c3 -5 10 -6 15 -3 13 9 11 12 -6 12 -8 0 -12 -4 -9 -9z"/>
<path d="M2876 347 c3 -10 9 -15 12 -12 3 3 0 11 -7 18 -10 9 -11 8 -5 -6z"/>
<path d="M4916 347 c3 -10 9 -15 12 -12 3 3 0 11 -7 18 -10 9 -11 8 -5 -6z"/>
<path d="M3070 339 c0 -5 5 -7 10 -4 6 3 10 8 10 11 0 2 -4 4 -10 4 -5 0 -10
-5 -10 -11z"/>
<path d="M3215 341 c-3 -5 -2 -12 3 -15 5 -3 9 1 9 9 0 17 -3 19 -12 6z"/>
<path d="M3295 340 c3 -5 8 -10 11 -10 2 0 4 5 4 10 0 6 -5 10 -11 10 -5 0 -7
-4 -4 -10z"/>
<path d="M3455 340 c-3 -5 -1 -10 4 -10 6 0 11 5 11 10 0 6 -2 10 -4 10 -3 0
-8 -4 -11 -10z"/>
<path d="M4375 339 c-3 -4 2 -6 10 -5 21 3 28 13 10 13 -9 0 -18 -4 -20 -8z"/>
<path d="M4494 342 c4 -3 14 -7 22 -8 9 -1 13 0 10 4 -4 3 -14 7 -22 8 -9 1
-13 0 -10 -4z"/>
<path d="M3116 313 c-6 -14 -5 -15 5 -6 7 7 10 15 7 18 -3 3 -9 -2 -12 -12z"/>
<path d="M3416 322 c-3 -5 1 -9 9 -9 8 0 12 4 9 9 -3 4 -7 8 -9 8 -2 0 -6 -4
-9 -8z"/>
<path d="M3956 322 c-3 -5 1 -9 9 -9 8 0 12 4 9 9 -3 4 -7 8 -9 8 -2 0 -6 -4
-9 -8z"/>
<path d="M3555 301 c-3 -5 -2 -12 3 -15 5 -3 9 1 9 9 0 17 -3 19 -12 6z"/>
<path d="M4230 305 c0 -5 5 -17 10 -25 5 -8 10 -10 10 -5 0 6 -5 17 -10 25 -5
8 -10 11 -10 5z"/>
<path d="M4155 289 c-4 -6 -5 -12 -2 -15 2 -3 7 2 10 11 7 17 1 20 -8 4z"/>
<path d="M3186 278 c3 -5 10 -6 15 -3 13 9 11 12 -6 12 -8 0 -12 -4 -9 -9z"/>
<path d="M2989 243 c-13 -16 -12 -17 4 -4 9 7 17 15 17 17 0 8 -8 3 -21 -13z"/>
</g>
</svg>
